# xmcd
#
# Track frame offsets:
#	150
#	19519
#	37900
#	55460
#	72917
#	92106
#	109005
#	126427
#	145557
#	164926
#	183307
#	200867
#	218324
#	237513
#	254412
#	271834
#
# Disc length: 3879 seconds
#
# Revision: 1
# Processed by: cddbd v1.5.2PL0 Copyright (c) Steve Scherf et al.
# Submitted via: audiograbber 1.83.01
#
DISCID=eb0f2510
DTITLE=Various Artist -  Hot Country CD1 KParty
DYEAR=1900
DGENRE=Karaoke
TTITLE0=Who Wouldn't Wanna Be Me
TTITLE1=This One's For The Girls
TTITLE2=What Was I Thinkin
TTITLE3=It's Five O'Clock Somewhere
TTITLE4=Real Good Man
TTITLE5=Celebrity
TTITLE6=What The World Needs
TTITLE7=Thank You Baby
TTITLE8=Who Wouldn't Wanna Be Me(w/vocal)
TTITLE9=This One's For The Girls(w/vocal)
TTITLE10=What Was I Thinkin(w/vocal)
TTITLE11=It's Five O'Clock Somewhere(w/vocal)
TTITLE12=Real Good Man(w/vocal)
TTITLE13=Celebrity(w/vocal)
TTITLE14=What The World Needs(w/vocal)
TTITLE15=Thank You Baby(w/vocal)
EXTD=
EXTT0=
EXTT1=
EXTT2=
EXTT3=
EXTT4=
EXTT5=
EXTT6=
EXTT7=
EXTT8=
EXTT9=
EXTT10=
EXTT11=
EXTT12=
EXTT13=
EXTT14=
EXTT15=
PLAYORDER=
